<?xml version="1.0" standalone="no"?><!DOCTYPE svg PUBLIC "-//W3C//DTD SVG 1.1//EN" "http://www.w3.org/Graphics/SVG/1.1/DTD/svg11.dtd"><svg t="1640320134888" class="icon" viewBox="0 0 1024 1024" version="1.1" xmlns="http://www.w3.org/2000/svg" p-id="3047" xmlns:xlink="http://www.w3.org/1999/xlink" width="200" height="200"><defs><style type="text/css"></style></defs><path d="M0 507.6992c0 280.3712 227.328 507.6992 507.6992 507.6992s507.6992-227.328 507.6992-507.6992C1015.3984 227.2768 788.0704 0 507.6992 0 227.2768 0 0 227.328 0 507.6992z" fill="#009F76" p-id="3048"></path><path d="M574.464 445.1328c139.7248 6.4 244.736 33.9968 244.736 67.0208 0 33.024-105.0112 60.5696-244.736 66.9696V819.2H450.048v-240.0256C310.0672 572.7232 204.8 545.1264 204.8 512.1024c0-33.0752 105.216-60.6208 245.1968-67.072V370.176H277.76V256h468.8896v114.176H574.464v74.9568z m0 113.664c123.392-5.5296 215.552-26.9824 215.552-52.5312s-92.1088-47.0016-215.552-52.48v83.712c-3.4816 0.3072-22.784 1.8944-61.184 1.8944-32 0-55.1424-1.3824-63.232-1.8944V453.7856c-123.648 5.4784-215.9616 26.88-215.9616 52.5312 0 25.6 92.3136 47.104 215.9616 52.5312v-0.1024c7.936 0.4096 30.5664 1.28 62.6688 1.28 40.192 0 58.2656-1.024 61.7472-1.28v0.0512z" fill="#FFFFFF" p-id="3049"></path></svg>